<?xml version="1.0" standalone="no"?>
<!DOCTYPE svg PUBLIC "-//W3C//DTD SVG 20010904//EN"
 "http://www.w3.org/TR/2001/REC-SVG-20010904/DTD/svg10.dtd">
<svg version="1.0" xmlns="http://www.w3.org/2000/svg"
 width="512.000000pt" height="512.000000pt" viewBox="0 0 512.000000 512.000000"
 preserveAspectRatio="xMidYMid meet">
<metadata>
Created by potrace 1.11, written by Peter Selinger 2001-2013
</metadata>
<g transform="translate(0.000000,512.000000) scale(0.100000,-0.100000)"
fill="#000000" stroke="none">
<path d="M2379 5116 c-2 -2 -38 -6 -79 -10 -64 -6 -207 -29 -315 -51 -212 -43
-515 -166 -740 -299 -606 -360 -1054 -992 -1194 -1686 -38 -190 -46 -275 -45
-520 0 -184 3 -241 19 -345 3 -16 7 -43 9 -60 3 -24 23 -123 41 -205 37 -167
152 -453 260 -645 132 -236 375 -527 575 -690 25 -20 54 -45 66 -54 146 -124
419 -281 640 -369 94 -38 271 -95 324 -106 14 -3 57 -12 96 -20 39 -9 88 -18
110 -21 21 -4 50 -8 64 -11 78 -13 166 -18 340 -19 241 0 370 13 575 59 96 21
135 33 254 72 217 71 572 259 717 377 10 9 46 37 79 63 95 76 263 240 331 324
16 19 31 37 34 40 36 35 186 252 242 350 111 194 209 440 262 659 39 158 44
187 63 356 13 110 9 480 -6 575 -16 108 -18 115 -30 175 -6 28 -13 61 -15 75
-11 55 -50 190 -78 270 -181 515 -524 964 -973 1272 -202 138 -492 280 -685
334 -187 52 -279 72 -475 100 -46 6 -460 16 -466 10z m431 -311 c274 -30 561
-119 817 -256 508 -270 906 -748 1084 -1300 28 -89 74 -284 83 -354 30 -227
27 -535 -5 -699 -6 -28 -12 -62 -14 -76 -23 -165 -138 -473 -247 -665 -245
-431 -652 -797 -1078 -970 -36 -14 -74 -30 -85 -35 -76 -34 -319 -101 -420
-115 -27 -4 -59 -9 -70 -11 -129 -26 -464 -25 -650 2 -85 12 -267 56 -367 89
-673 220 -1212 754 -1437 1423 -29 87 -71 239 -76 277 -1 11 -5 34 -8 50 -25
124 -34 248 -32 425 4 197 16 300 59 495 29 135 128 408 175 485 6 8 22 39 36
68 38 76 150 243 226 337 62 77 206 227 280 291 120 105 332 246 477 318 147
74 430 171 557 191 17 3 41 7 55 10 35 6 112 16 195 24 83 9 352 6 445 -4z"/>
<path d="M3748 3165 c-2 -1 -42 -5 -89 -8 -304 -21 -593 -151 -821 -367 l-92
-86 21 -35 c42 -69 67 -116 98 -187 l32 -73 38 48 c135 167 312 289 514 354
103 33 119 36 236 44 124 9 142 14 179 48 76 72 61 191 -29 239 -20 12 -82 28
-87 23z"/>
<path d="M1281 3139 c-68 -47 -89 -104 -66 -173 28 -80 66 -100 216 -110 524
-35 941 -458 975 -991 8 -112 19 -141 66 -176 76 -55 178 -31 221 51 16 30 18
51 13 145 -32 625 -486 1136 -1121 1260 -16 3 -84 8 -150 11 -115 6 -122 5
-154 -17z"/>
</g>
</svg>
